<mxfile host="app.diagrams.net" modified="2024-04-01T02:14:46.762Z" agent="Mozilla/5.0 (Windows NT 10.0; Win64; x64) AppleWebKit/537.36 (KHTML, like Gecko) Chrome/123.0.0.0 Safari/537.36" etag="4p1D0JwmbX4poyLj_7Zm" version="24.2.1" type="browser">
  <diagram name="페이지-1" id="ujx9ijmubBWg6w6ToYCW">
    <mxGraphModel dx="3790" dy="1405" grid="1" gridSize="10" guides="1" tooltips="1" connect="1" arrows="1" fold="1" page="1" pageScale="1" pageWidth="827" pageHeight="1169" math="0" shadow="0">
      <root>
        <mxCell id="0" />
        <mxCell id="1" parent="0" />
        <mxCell id="YfDtgJ-vpvsAnxXWQfx4-1" value="리스트 페이지&lt;div&gt;시작&lt;/div&gt;" style="strokeWidth=2;html=1;shape=mxgraph.flowchart.terminator;whiteSpace=wrap;" parent="1" vertex="1">
          <mxGeometry x="140" y="20" width="100" height="60" as="geometry" />
        </mxCell>
        <mxCell id="YfDtgJ-vpvsAnxXWQfx4-2" value="DB 접속" style="rounded=0;whiteSpace=wrap;html=1;" parent="1" vertex="1">
          <mxGeometry x="130" y="110" width="120" height="60" as="geometry" />
        </mxCell>
        <mxCell id="YfDtgJ-vpvsAnxXWQfx4-3" value="" style="endArrow=classic;html=1;rounded=0;entryX=0.5;entryY=0;entryDx=0;entryDy=0;exitX=0.5;exitY=1;exitDx=0;exitDy=0;exitPerimeter=0;" parent="1" source="YfDtgJ-vpvsAnxXWQfx4-1" target="YfDtgJ-vpvsAnxXWQfx4-2" edge="1">
          <mxGeometry width="50" height="50" relative="1" as="geometry">
            <mxPoint x="390" y="140" as="sourcePoint" />
            <mxPoint x="210" y="230" as="targetPoint" />
          </mxGeometry>
        </mxCell>
        <mxCell id="YfDtgJ-vpvsAnxXWQfx4-5" value="DB접속&lt;div&gt;예외발생&lt;/div&gt;" style="rhombus;whiteSpace=wrap;html=1;" parent="1" vertex="1">
          <mxGeometry x="150" y="210" width="80" height="80" as="geometry" />
        </mxCell>
        <mxCell id="YfDtgJ-vpvsAnxXWQfx4-6" value="" style="endArrow=classic;html=1;rounded=0;exitX=0.5;exitY=1;exitDx=0;exitDy=0;entryX=0.5;entryY=0;entryDx=0;entryDy=0;" parent="1" source="YfDtgJ-vpvsAnxXWQfx4-2" target="YfDtgJ-vpvsAnxXWQfx4-5" edge="1">
          <mxGeometry width="50" height="50" relative="1" as="geometry">
            <mxPoint x="160" y="280" as="sourcePoint" />
            <mxPoint x="210" y="230" as="targetPoint" />
          </mxGeometry>
        </mxCell>
        <mxCell id="YfDtgJ-vpvsAnxXWQfx4-8" value="예외 메세지 출력" style="shape=document;whiteSpace=wrap;html=1;boundedLbl=1;" parent="1" vertex="1">
          <mxGeometry x="460" y="1000" width="120" height="60" as="geometry" />
        </mxCell>
        <mxCell id="YfDtgJ-vpvsAnxXWQfx4-10" value="리스트 페이지&lt;div&gt;종료&lt;/div&gt;" style="strokeWidth=2;html=1;shape=mxgraph.flowchart.terminator;whiteSpace=wrap;" parent="1" vertex="1">
          <mxGeometry x="140" y="1100" width="100" height="60" as="geometry" />
        </mxCell>
        <mxCell id="YfDtgJ-vpvsAnxXWQfx4-11" value="" style="endArrow=classic;html=1;rounded=0;exitX=0.508;exitY=0.906;exitDx=0;exitDy=0;exitPerimeter=0;entryX=1;entryY=0.5;entryDx=0;entryDy=0;entryPerimeter=0;" parent="1" source="YfDtgJ-vpvsAnxXWQfx4-8" target="YfDtgJ-vpvsAnxXWQfx4-10" edge="1">
          <mxGeometry width="50" height="50" relative="1" as="geometry">
            <mxPoint x="380" y="570" as="sourcePoint" />
            <mxPoint x="430" y="520" as="targetPoint" />
            <Array as="points">
              <mxPoint x="520" y="1130" />
            </Array>
          </mxGeometry>
        </mxCell>
        <mxCell id="YfDtgJ-vpvsAnxXWQfx4-12" value="page 획득" style="shape=parallelogram;perimeter=parallelogramPerimeter;whiteSpace=wrap;html=1;fixedSize=1;" parent="1" vertex="1">
          <mxGeometry x="50" y="420" width="110" height="50" as="geometry" />
        </mxCell>
        <mxCell id="YfDtgJ-vpvsAnxXWQfx4-15" value="page&lt;div&gt;파라미터&lt;/div&gt;&lt;div&gt;존재&lt;/div&gt;" style="rhombus;whiteSpace=wrap;html=1;" parent="1" vertex="1">
          <mxGeometry x="140" y="340" width="100" height="60" as="geometry" />
        </mxCell>
        <mxCell id="YfDtgJ-vpvsAnxXWQfx4-17" value="1 획득" style="shape=parallelogram;perimeter=parallelogramPerimeter;whiteSpace=wrap;html=1;fixedSize=1;" parent="1" vertex="1">
          <mxGeometry x="220" y="420" width="110" height="50" as="geometry" />
        </mxCell>
        <mxCell id="YfDtgJ-vpvsAnxXWQfx4-19" value="" style="endArrow=classic;html=1;rounded=0;exitX=0;exitY=0.5;exitDx=0;exitDy=0;entryX=0.536;entryY=0;entryDx=0;entryDy=0;entryPerimeter=0;" parent="1" source="YfDtgJ-vpvsAnxXWQfx4-15" target="YfDtgJ-vpvsAnxXWQfx4-12" edge="1">
          <mxGeometry relative="1" as="geometry">
            <mxPoint x="100" y="400" as="sourcePoint" />
            <mxPoint x="200" y="400" as="targetPoint" />
            <Array as="points">
              <mxPoint x="110" y="370" />
            </Array>
          </mxGeometry>
        </mxCell>
        <mxCell id="YfDtgJ-vpvsAnxXWQfx4-20" value="yes" style="edgeLabel;resizable=0;html=1;;align=center;verticalAlign=middle;" parent="YfDtgJ-vpvsAnxXWQfx4-19" connectable="0" vertex="1">
          <mxGeometry relative="1" as="geometry" />
        </mxCell>
        <mxCell id="YfDtgJ-vpvsAnxXWQfx4-21" value="" style="endArrow=classic;html=1;rounded=0;exitX=1;exitY=0.5;exitDx=0;exitDy=0;entryX=0.54;entryY=-0.007;entryDx=0;entryDy=0;entryPerimeter=0;" parent="1" source="YfDtgJ-vpvsAnxXWQfx4-15" target="YfDtgJ-vpvsAnxXWQfx4-17" edge="1">
          <mxGeometry relative="1" as="geometry">
            <mxPoint x="100" y="400" as="sourcePoint" />
            <mxPoint x="280" y="440" as="targetPoint" />
            <Array as="points">
              <mxPoint x="280" y="370" />
            </Array>
          </mxGeometry>
        </mxCell>
        <mxCell id="YfDtgJ-vpvsAnxXWQfx4-22" value="no" style="edgeLabel;resizable=0;html=1;;align=center;verticalAlign=middle;" parent="YfDtgJ-vpvsAnxXWQfx4-21" connectable="0" vertex="1">
          <mxGeometry relative="1" as="geometry" />
        </mxCell>
        <mxCell id="YfDtgJ-vpvsAnxXWQfx4-23" value="" style="endArrow=classic;html=1;rounded=0;exitX=1;exitY=0.5;exitDx=0;exitDy=0;entryX=0.5;entryY=0;entryDx=0;entryDy=0;" parent="1" source="YfDtgJ-vpvsAnxXWQfx4-5" target="YfDtgJ-vpvsAnxXWQfx4-8" edge="1">
          <mxGeometry relative="1" as="geometry">
            <mxPoint x="160" y="370" as="sourcePoint" />
            <mxPoint x="119" y="440" as="targetPoint" />
            <Array as="points">
              <mxPoint x="520" y="250" />
            </Array>
          </mxGeometry>
        </mxCell>
        <mxCell id="YfDtgJ-vpvsAnxXWQfx4-24" value="Yes" style="edgeLabel;resizable=0;html=1;;align=center;verticalAlign=middle;" parent="YfDtgJ-vpvsAnxXWQfx4-23" connectable="0" vertex="1">
          <mxGeometry relative="1" as="geometry" />
        </mxCell>
        <mxCell id="YfDtgJ-vpvsAnxXWQfx4-25" value="" style="endArrow=classic;html=1;rounded=0;" parent="1" target="YfDtgJ-vpvsAnxXWQfx4-15" edge="1">
          <mxGeometry relative="1" as="geometry">
            <mxPoint x="190" y="290" as="sourcePoint" />
            <mxPoint x="250" y="380" as="targetPoint" />
          </mxGeometry>
        </mxCell>
        <mxCell id="YfDtgJ-vpvsAnxXWQfx4-26" value="No" style="edgeLabel;resizable=0;html=1;;align=center;verticalAlign=middle;" parent="YfDtgJ-vpvsAnxXWQfx4-25" connectable="0" vertex="1">
          <mxGeometry relative="1" as="geometry" />
        </mxCell>
        <mxCell id="YfDtgJ-vpvsAnxXWQfx4-27" value="DB에서 해당 페이지&lt;div&gt;데이터 획득&lt;/div&gt;" style="rounded=0;whiteSpace=wrap;html=1;" parent="1" vertex="1">
          <mxGeometry x="130" y="510" width="120" height="60" as="geometry" />
        </mxCell>
        <mxCell id="YfDtgJ-vpvsAnxXWQfx4-28" value="" style="endArrow=classic;html=1;rounded=0;entryX=0.5;entryY=0;entryDx=0;entryDy=0;exitX=0.454;exitY=1.009;exitDx=0;exitDy=0;exitPerimeter=0;" parent="1" target="YfDtgJ-vpvsAnxXWQfx4-27" edge="1" source="YfDtgJ-vpvsAnxXWQfx4-12">
          <mxGeometry width="50" height="50" relative="1" as="geometry">
            <mxPoint x="100" y="480" as="sourcePoint" />
            <mxPoint x="270" y="420" as="targetPoint" />
            <Array as="points">
              <mxPoint x="100" y="490" />
              <mxPoint x="190" y="490" />
              <mxPoint x="190" y="510" />
            </Array>
          </mxGeometry>
        </mxCell>
        <mxCell id="YfDtgJ-vpvsAnxXWQfx4-30" value="" style="endArrow=classic;html=1;rounded=0;entryX=0.5;entryY=0;entryDx=0;entryDy=0;exitX=0.448;exitY=1.009;exitDx=0;exitDy=0;exitPerimeter=0;" parent="1" source="YfDtgJ-vpvsAnxXWQfx4-17" target="YfDtgJ-vpvsAnxXWQfx4-27" edge="1">
          <mxGeometry width="50" height="50" relative="1" as="geometry">
            <mxPoint x="145" y="480" as="sourcePoint" />
            <mxPoint x="235" y="510" as="targetPoint" />
            <Array as="points">
              <mxPoint x="270" y="490" />
              <mxPoint x="190" y="490" />
            </Array>
          </mxGeometry>
        </mxCell>
        <mxCell id="YfDtgJ-vpvsAnxXWQfx4-37" value="" style="edgeStyle=orthogonalEdgeStyle;rounded=0;orthogonalLoop=1;jettySize=auto;html=1;" parent="1" source="YfDtgJ-vpvsAnxXWQfx4-31" target="YfDtgJ-vpvsAnxXWQfx4-33" edge="1">
          <mxGeometry relative="1" as="geometry" />
        </mxCell>
        <mxCell id="YfDtgJ-vpvsAnxXWQfx4-31" value="페이지 관련 설정&lt;div&gt;셋팅&lt;/div&gt;" style="rounded=0;whiteSpace=wrap;html=1;" parent="1" vertex="1">
          <mxGeometry x="130" y="710" width="120" height="60" as="geometry" />
        </mxCell>
        <mxCell id="YfDtgJ-vpvsAnxXWQfx4-33" value="DB에서 게시글 조회" style="rounded=0;whiteSpace=wrap;html=1;" parent="1" vertex="1">
          <mxGeometry x="130" y="790" width="120" height="60" as="geometry" />
        </mxCell>
        <mxCell id="YfDtgJ-vpvsAnxXWQfx4-34" value="" style="endArrow=classic;html=1;rounded=0;entryX=0.5;entryY=0;entryDx=0;entryDy=0;" parent="1" edge="1">
          <mxGeometry width="50" height="50" relative="1" as="geometry">
            <mxPoint x="190" y="770" as="sourcePoint" />
            <mxPoint x="189.57" y="790" as="targetPoint" />
          </mxGeometry>
        </mxCell>
        <mxCell id="YfDtgJ-vpvsAnxXWQfx4-35" value="화면에 출력" style="shape=document;whiteSpace=wrap;html=1;boundedLbl=1;" parent="1" vertex="1">
          <mxGeometry x="130" y="1000" width="120" height="60" as="geometry" />
        </mxCell>
        <mxCell id="YfDtgJ-vpvsAnxXWQfx4-39" value="" style="endArrow=classic;html=1;rounded=0;entryX=0.5;entryY=0;entryDx=0;entryDy=0;entryPerimeter=0;" parent="1" target="YfDtgJ-vpvsAnxXWQfx4-10" edge="1">
          <mxGeometry width="50" height="50" relative="1" as="geometry">
            <mxPoint x="190" y="1050" as="sourcePoint" />
            <mxPoint x="189.76" y="1000" as="targetPoint" />
          </mxGeometry>
        </mxCell>
        <mxCell id="1-xYL4CfV0Q9pOLcHpTg-2" value="" style="endArrow=classic;html=1;rounded=0;exitX=0.5;exitY=1;exitDx=0;exitDy=0;entryX=0.5;entryY=0;entryDx=0;entryDy=0;" edge="1" parent="1" source="YfDtgJ-vpvsAnxXWQfx4-27" target="1-xYL4CfV0Q9pOLcHpTg-1">
          <mxGeometry width="50" height="50" relative="1" as="geometry">
            <mxPoint x="190" y="570" as="sourcePoint" />
            <mxPoint x="190" y="710" as="targetPoint" />
          </mxGeometry>
        </mxCell>
        <mxCell id="1-xYL4CfV0Q9pOLcHpTg-1" value="게시글 수 획득&lt;div&gt;예외 발생&lt;/div&gt;" style="rhombus;whiteSpace=wrap;html=1;" vertex="1" parent="1">
          <mxGeometry x="130" y="610" width="120" height="70" as="geometry" />
        </mxCell>
        <mxCell id="1-xYL4CfV0Q9pOLcHpTg-3" value="" style="endArrow=classic;html=1;rounded=0;exitX=1;exitY=0.5;exitDx=0;exitDy=0;" edge="1" parent="1" source="1-xYL4CfV0Q9pOLcHpTg-1">
          <mxGeometry relative="1" as="geometry">
            <mxPoint x="70" y="770" as="sourcePoint" />
            <mxPoint x="520" y="645" as="targetPoint" />
          </mxGeometry>
        </mxCell>
        <mxCell id="1-xYL4CfV0Q9pOLcHpTg-4" value="Yes" style="edgeLabel;resizable=0;html=1;;align=center;verticalAlign=middle;" connectable="0" vertex="1" parent="1-xYL4CfV0Q9pOLcHpTg-3">
          <mxGeometry relative="1" as="geometry" />
        </mxCell>
        <mxCell id="1-xYL4CfV0Q9pOLcHpTg-5" value="" style="endArrow=classic;html=1;rounded=0;exitX=0.5;exitY=1;exitDx=0;exitDy=0;entryX=0.5;entryY=0;entryDx=0;entryDy=0;" edge="1" parent="1" source="1-xYL4CfV0Q9pOLcHpTg-1" target="YfDtgJ-vpvsAnxXWQfx4-31">
          <mxGeometry relative="1" as="geometry">
            <mxPoint y="670" as="sourcePoint" />
            <mxPoint x="100" y="670" as="targetPoint" />
          </mxGeometry>
        </mxCell>
        <mxCell id="1-xYL4CfV0Q9pOLcHpTg-6" value="No" style="edgeLabel;resizable=0;html=1;;align=center;verticalAlign=middle;" connectable="0" vertex="1" parent="1-xYL4CfV0Q9pOLcHpTg-5">
          <mxGeometry relative="1" as="geometry" />
        </mxCell>
        <mxCell id="1-xYL4CfV0Q9pOLcHpTg-8" value="" style="endArrow=classic;html=1;rounded=0;entryX=0.5;entryY=0;entryDx=0;entryDy=0;" edge="1" parent="1" target="1-xYL4CfV0Q9pOLcHpTg-7">
          <mxGeometry width="50" height="50" relative="1" as="geometry">
            <mxPoint x="190.19" y="850" as="sourcePoint" />
            <mxPoint x="190" y="1000" as="targetPoint" />
          </mxGeometry>
        </mxCell>
        <mxCell id="1-xYL4CfV0Q9pOLcHpTg-7" value="게시글 수 획득&lt;div&gt;예외 발생&lt;/div&gt;" style="rhombus;whiteSpace=wrap;html=1;" vertex="1" parent="1">
          <mxGeometry x="120" y="880" width="140" height="80" as="geometry" />
        </mxCell>
        <mxCell id="1-xYL4CfV0Q9pOLcHpTg-9" value="" style="endArrow=classic;html=1;rounded=0;exitX=0.5;exitY=1;exitDx=0;exitDy=0;entryX=0.5;entryY=0;entryDx=0;entryDy=0;" edge="1" parent="1" source="1-xYL4CfV0Q9pOLcHpTg-7" target="YfDtgJ-vpvsAnxXWQfx4-35">
          <mxGeometry relative="1" as="geometry">
            <mxPoint y="980" as="sourcePoint" />
            <mxPoint x="100" y="980" as="targetPoint" />
          </mxGeometry>
        </mxCell>
        <mxCell id="1-xYL4CfV0Q9pOLcHpTg-10" value="No" style="edgeLabel;resizable=0;html=1;;align=center;verticalAlign=middle;" connectable="0" vertex="1" parent="1-xYL4CfV0Q9pOLcHpTg-9">
          <mxGeometry relative="1" as="geometry" />
        </mxCell>
        <mxCell id="1-xYL4CfV0Q9pOLcHpTg-12" value="" style="endArrow=classic;html=1;rounded=0;exitX=1;exitY=0.5;exitDx=0;exitDy=0;" edge="1" parent="1" source="1-xYL4CfV0Q9pOLcHpTg-7">
          <mxGeometry relative="1" as="geometry">
            <mxPoint x="-110" y="920" as="sourcePoint" />
            <mxPoint x="520" y="920" as="targetPoint" />
          </mxGeometry>
        </mxCell>
        <mxCell id="1-xYL4CfV0Q9pOLcHpTg-13" value="Yes" style="edgeLabel;resizable=0;html=1;;align=center;verticalAlign=middle;" connectable="0" vertex="1" parent="1-xYL4CfV0Q9pOLcHpTg-12">
          <mxGeometry relative="1" as="geometry" />
        </mxCell>
      </root>
    </mxGraphModel>
  </diagram>
</mxfile>
